HIERARCHY
ROOT ETY1
{
	OFFSET 0.000000 0.000000 0.000000
	CHANNELS 6 Xposition Yposition Zposition Xrotation Yrotation Zrotation
	JOINT N_ALL
	{
		OFFSET 0.000000 0.000000 0.000000
		CHANNELS 3 Xrotation Yrotation Zrotation
		JOINT locator2
		{
			OFFSET 0.000000 0.000000 63.674999
			CHANNELS 3 Xrotation Yrotation Zrotation
			JOINT hara
			{
				OFFSET -0.000000 -0.000000 0.472500
				CHANNELS 3 Xrotation Yrotation Zrotation
				JOINT mune
				{
					OFFSET -0.000005 -0.000000 14.647499
					CHANNELS 3 Xrotation Yrotation Zrotation
					JOINT kubi
					{
						OFFSET -0.565367 0.000000 13.797264
						CHANNELS 3 Xrotation Yrotation Zrotation
						JOINT kao
						{
							OFFSET 0.709599 -0.000000 1.686798
							CHANNELS 3 Xrotation Yrotation Zrotation
							JOINT ago
							{
								OFFSET 1.521274 -0.000001 2.195969
								CHANNELS 3 Xrotation Yrotation Zrotation
								End Site
								{
									OFFSET -0.000000 0.000000 0.365990
								}
							}
							JOINT eyebrow
							{
								OFFSET 2.744157 -0.000001 4.250847
								CHANNELS 3 Xrotation Yrotation Zrotation
								End Site
								{
									OFFSET -0.000000 0.000000 0.365990
								}
							}
							JOINT lip
							{
								OFFSET 1.419795 -0.000001 0.927528
								CHANNELS 3 Xrotation Yrotation Zrotation
								End Site
								{
									OFFSET 0.365992 -0.000000 0.000000
								}
							}
						}
					}
					JOINT L_sako
					{
						OFFSET -0.472501 6.525000 10.465401
						CHANNELS 3 Xrotation Yrotation Zrotation
						JOINT L_kata
						{
							OFFSET -0.000001 5.850000 -0.581734
							CHANNELS 3 Xrotation Yrotation Zrotation
							JOINT L_hiji
							{
								OFFSET -0.483016 15.785759 -0.000015
								CHANNELS 3 Xrotation Yrotation Zrotation
								JOINT L_te
								{
									OFFSET 0.611527 17.032738 -0.013641
									CHANNELS 3 Xrotation Yrotation Zrotation
									JOINT LeftHandIndex1
									{
										OFFSET 2.549848 6.470253 0.791817
										CHANNELS 3 Xrotation Yrotation Zrotation
										JOINT LeftHandIndex2
										{
											OFFSET -0.000001 2.289848 0.000000
											CHANNELS 3 Xrotation Yrotation Zrotation
											JOINT LeftHandIndex3
											{
												OFFSET -0.000001 2.268135 0.000000
												CHANNELS 3 Xrotation Yrotation Zrotation
												End Site
												{
													OFFSET 0.000000 0.365993 0.000000
												}
											}
										}
									}
									JOINT LeftHandMiddle1
									{
										OFFSET 0.874708 6.694298 1.118919
										CHANNELS 3 Xrotation Yrotation Zrotation
										JOINT LeftHandMiddle2
										{
											OFFSET -0.000001 2.683815 0.000000
											CHANNELS 3 Xrotation Yrotation Zrotation
											JOINT LeftHandMiddle3
											{
												OFFSET -0.000001 2.217308 0.000000
												CHANNELS 3 Xrotation Yrotation Zrotation
												End Site
												{
													OFFSET -0.000000 0.365993 0.000000
												}
											}
										}
									}
									JOINT LeftHandPinky1
									{
										OFFSET -2.442180 5.931721 0.497902
										CHANNELS 3 Xrotation Yrotation Zrotation
										JOINT LeftHandPinky2
										{
											OFFSET -0.000000 2.137306 0.000000
											CHANNELS 3 Xrotation Yrotation Zrotation
											JOINT LeftHandPinky3
											{
												OFFSET -0.000000 1.836044 0.000000
												CHANNELS 3 Xrotation Yrotation Zrotation
												End Site
												{
													OFFSET 0.000000 0.365993 0.000000
												}
											}
										}
									}
									JOINT LeftHandRing1
									{
										OFFSET -0.853656 6.338440 0.870934
										CHANNELS 3 Xrotation Yrotation Zrotation
										JOINT LeftHandRing2
										{
											OFFSET -0.000001 2.531284 0.000000
											CHANNELS 3 Xrotation Yrotation Zrotation
											JOINT LeftHandRing3
											{
												OFFSET -0.000001 2.217308 0.000000
												CHANNELS 3 Xrotation Yrotation Zrotation
												End Site
												{
													OFFSET -0.000000 0.365993 0.000000
												}
											}
										}
									}
									JOINT LeftHandThumb1
									{
										OFFSET 2.594638 1.377514 -1.567856
										CHANNELS 3 Xrotation Yrotation Zrotation
										JOINT LeftHandThumb2
										{
											OFFSET 1.626614 2.409187 0.000557
											CHANNELS 3 Xrotation Yrotation Zrotation
											JOINT LeftHandThumb3
											{
												OFFSET 0.823900 2.113201 0.000290
												CHANNELS 3 Xrotation Yrotation Zrotation
												End Site
												{
													OFFSET 0.000000 0.365993 0.000000
												}
											}
										}
									}
								}
							}
						}
					}
					JOINT R_sako
					{
						OFFSET -0.472506 -6.525000 10.465546
						CHANNELS 3 Xrotation Yrotation Zrotation
						JOINT R_kata
						{
							OFFSET 0.000002 -5.850000 -0.581696
							CHANNELS 3 Xrotation Yrotation Zrotation
							JOINT R_hiji
							{
								OFFSET -0.483008 -15.785765 -0.000015
								CHANNELS 3 Xrotation Yrotation Zrotation
								JOINT R_te
								{
									OFFSET 0.611537 -17.032732 -0.013748
									CHANNELS 3 Xrotation Yrotation Zrotation
									JOINT RightHandIndex1
									{
										OFFSET 2.550124 -6.470253 0.790878
										CHANNELS 3 Xrotation Yrotation Zrotation
										JOINT RightHandIndex2
										{
											OFFSET 0.000001 -2.289848 0.000000
											CHANNELS 3 Xrotation Yrotation Zrotation
											JOINT RightHandIndex3
											{
												OFFSET 0.000001 -2.268135 0.000000
												CHANNELS 3 Xrotation Yrotation Zrotation
												End Site
												{
													OFFSET 0.000000 -0.365993 0.000000
												}
											}
										}
									}
									JOINT RightHandMiddle1
									{
										OFFSET 0.875098 -6.694302 1.118561
										CHANNELS 3 Xrotation Yrotation Zrotation
										JOINT RightHandMiddle2
										{
											OFFSET 0.000001 -2.683807 0.000000
											CHANNELS 3 Xrotation Yrotation Zrotation
											JOINT RightHandMiddle3
											{
												OFFSET 0.000001 -2.217308 0.000000
												CHANNELS 3 Xrotation Yrotation Zrotation
												End Site
												{
													OFFSET 0.000000 -0.365993 0.000000
												}
											}
										}
									}
									JOINT RightHandPinky1
									{
										OFFSET -2.442005 -5.931721 0.498680
										CHANNELS 3 Xrotation Yrotation Zrotation
										JOINT RightHandPinky2
										{
											OFFSET 0.000000 -2.137306 0.000000
											CHANNELS 3 Xrotation Yrotation Zrotation
											JOINT RightHandPinky3
											{
												OFFSET 0.000000 -1.836044 0.000000
												CHANNELS 3 Xrotation Yrotation Zrotation
												End Site
												{
													OFFSET 0.000000 -0.365993 0.000000
												}
											}
										}
									}
									JOINT RightHandRing1
									{
										OFFSET -0.853352 -6.338440 0.871170
										CHANNELS 3 Xrotation Yrotation Zrotation
										JOINT RightHandRing2
										{
											OFFSET 0.000001 -2.531284 0.000000
											CHANNELS 3 Xrotation Yrotation Zrotation
											JOINT RightHandRing3
											{
												OFFSET 0.000001 -2.217308 0.000000
												CHANNELS 3 Xrotation Yrotation Zrotation
												End Site
												{
													OFFSET 0.000000 -0.365993 0.000000
												}
											}
										}
									}
									JOINT RightHandThumb1
									{
										OFFSET 2.594098 -1.377514 -1.568817
										CHANNELS 3 Xrotation Yrotation Zrotation
										JOINT RightHandThumb2
										{
											OFFSET 1.626616 -2.409184 0.000000
											CHANNELS 3 Xrotation Yrotation Zrotation
											JOINT RightHandThumb3
											{
												OFFSET 0.823900 -2.113201 0.000000
												CHANNELS 3 Xrotation Yrotation Zrotation
												End Site
												{
													OFFSET 0.000000 -0.365993 0.000000
												}
											}
										}
									}
								}
							}
						}
					}
				}
			}
			JOINT koshi
			{
				OFFSET 0.000000 0.000000 0.000000
				CHANNELS 3 Xrotation Yrotation Zrotation
				JOINT L_momo
				{
					OFFSET 0.000005 5.033075 -8.541428
					CHANNELS 3 Xrotation Yrotation Zrotation
					JOINT L_hiza
					{
						OFFSET 0.236263 0.000015 -23.625002
						CHANNELS 3 Xrotation Yrotation Zrotation
						JOINT L_ashi
						{
							OFFSET -0.944986 0.000017 -25.908707
							CHANNELS 3 Xrotation Yrotation Zrotation
							JOINT L_ashi2
							{
								OFFSET 3.767458 0.000001 -3.875652
								CHANNELS 3 Xrotation Yrotation Zrotation
								End Site
								{
									OFFSET 0.365992 0.000000 0.000000
								}
							}
						}
					}
				}
				JOINT R_momo
				{
					OFFSET 0.000001 -5.033065 -8.541435
					CHANNELS 3 Xrotation Yrotation Zrotation
					JOINT R_hiza
					{
						OFFSET 0.236263 0.000015 -23.624998
						CHANNELS 3 Xrotation Yrotation Zrotation
						JOINT R_ashi
						{
							OFFSET -0.944986 0.000017 -25.908707
							CHANNELS 3 Xrotation Yrotation Zrotation
							JOINT R_ashi2
							{
								OFFSET 3.767459 0.000001 -3.875652
								CHANNELS 3 Xrotation Yrotation Zrotation
								End Site
								{
									OFFSET 0.365992 0.000000 0.000000
								}
							}
						}
					}
				}
			}
		}
	}
}
MOTION
Frames: 7
Frame Time: 0.041667
0.000000 0.000000 0.000000 -0.000000 0.000000 -89.999982 -0.000000 0.000000 -0.000000 0.000000 0.000003 -0.000000 0.267911 0.393715 -3.829798 -0.052081 -0.273192 1.615133 1.217752 -10.968597 0.527252 -0.708921 12.136488 0.958144 -0.000001 4.998929 -0.000002 -0.000074 0.999857 -0.000039 -0.000059 -0.954582 -0.000021 -19.625850 15.041263 -2.271189 -55.198888 -0.649699 -6.924280 -0.292388 -0.006353 -22.235461 -9.252136 -3.147215 -3.421893 -74.133767 11.592432 0.286214 -96.094082 0.021925 -0.019696 -96.094082 0.021911 -0.019690 -63.266280 0.010877 -0.017698 -95.047150 0.021529 -0.019751 -95.047109 0.021526 -0.019749 -84.444723 -10.120395 -0.019480 -89.056091 0.019450 -0.019798 -102.104566 0.023954 -0.019367 -75.505699 0.014829 -0.019183 -94.513835 0.021339 -0.019762 -94.513842 0.021345 -0.019760 -19.240370 1.321272 4.677750 -0.015010 -0.006951 49.503866 -0.017418 -0.010397 61.615116 19.434805 15.341394 2.261519 54.910551 2.412383 6.434684 0.291989 -0.005038 21.758696 14.438651 -6.508235 4.034257 74.134839 11.579750 -0.305691 96.098836 0.000024 0.000041 96.100755 0.000047 0.000040 63.267892 0.000026 0.000050 95.052444 0.000080 0.000026 95.053707 0.000057 0.000027 84.440707 -10.135121 -0.000340 89.055674 0.000062 0.000044 102.111697 0.000056 0.000043 75.502946 0.000049 0.000025 94.518500 0.000059 0.000020 94.520433 0.000066 0.000012 19.238387 1.319619 -4.686635 0.000033 -0.000010 -49.518188 0.000042 -0.000040 -61.627854 0.331392 0.648363 -5.478407 4.938209 -6.245818 -0.066812 0.001756 9.107104 -0.019605 -5.237815 -3.524076 5.856696 -0.000002 -0.000038 -0.000000 -6.095196 -7.498920 0.100075 -0.003232 8.721688 0.028055 5.751910 -1.790121 -0.667724 -0.000004 0.019154 -0.000004 
0.000000 0.000000 0.000000 -0.000000 0.000000 -89.999982 -0.000000 0.000000 -0.000000 0.000000 0.000003 -0.000000 0.267911 0.393715 -3.829798 -0.052081 -0.273192 1.615133 1.217752 -10.968597 0.527252 -0.708921 12.136488 0.958144 -0.000001 4.998929 -0.000002 -0.000074 0.999857 -0.000039 -0.000059 -0.954582 -0.000021 -19.625850 15.041263 -2.271189 -55.198888 -0.649699 -6.924280 -0.292388 -0.006353 -22.235461 -9.252136 -3.147215 -3.421893 -74.133767 11.592432 0.286214 -96.094082 0.021925 -0.019696 -96.094082 0.021911 -0.019690 -63.266280 0.010877 -0.017698 -95.047150 0.021529 -0.019751 -95.047109 0.021526 -0.019749 -84.444723 -10.120395 -0.019480 -89.056091 0.019450 -0.019798 -102.104566 0.023954 -0.019367 -75.505699 0.014829 -0.019183 -94.513835 0.021339 -0.019762 -94.513842 0.021345 -0.019760 -19.240370 1.321272 4.677750 -0.015010 -0.006951 49.503866 -0.017418 -0.010397 61.615116 19.434805 15.341394 2.261519 54.910551 2.412383 6.434684 0.291989 -0.005038 21.758696 14.438651 -6.508235 4.034257 74.134839 11.579750 -0.305691 96.098836 0.000024 0.000041 96.100755 0.000047 0.000040 63.267892 0.000026 0.000050 95.052444 0.000080 0.000026 95.053707 0.000057 0.000027 84.440707 -10.135121 -0.000340 89.055674 0.000062 0.000044 102.111697 0.000056 0.000043 75.502946 0.000049 0.000025 94.518500 0.000059 0.000020 94.520433 0.000066 0.000012 19.238387 1.319619 -4.686635 0.000033 -0.000010 -49.518188 0.000042 -0.000040 -61.627854 0.331392 0.648363 -5.478407 4.938209 -6.245818 -0.066812 0.001756 9.107104 -0.019605 -5.237815 -3.524076 5.856696 -0.000002 -0.000038 -0.000000 -6.095196 -7.498920 0.100075 -0.003232 8.721688 0.028055 5.751910 -1.790121 -0.667724 -0.000004 0.019154 -0.000004 
0.000000 0.000000 0.000000 -0.000000 0.000000 -89.999982 -0.000000 0.000000 -0.000000 0.000000 0.000003 -0.000000 0.204861 0.406315 -8.695200 0.510526 0.067567 2.002551 0.128763 -8.306914 3.485890 0.390263 9.831297 0.199572 -0.000001 5.651240 -0.000001 -0.000074 1.071248 -0.000039 -0.000059 -1.023909 -0.000021 -18.576648 14.643284 -1.902497 -55.978284 -2.150617 -6.842118 -0.290503 0.012787 -26.532245 -8.296933 -2.974672 -3.163709 -74.201468 11.626193 0.281727 -96.181754 0.021954 -0.019687 -96.181747 0.021941 -0.019687 -63.322493 0.010891 -0.017702 -95.133832 0.021558 -0.019746 -95.133798 0.021555 -0.019749 -84.520750 -10.150360 -0.019668 -89.137623 0.019481 -0.019799 -102.197730 0.023986 -0.019359 -75.575080 0.014852 -0.019186 -94.600067 0.021368 -0.019759 -94.600073 0.021373 -0.019758 -19.255258 1.321082 4.698247 -0.015030 -0.006984 49.600458 -0.017434 -0.010427 61.720718 18.173503 15.066950 2.316816 52.168377 4.047661 9.848478 0.285805 0.012608 26.271138 12.966527 -5.650255 4.112475 72.658958 10.719774 -0.299195 94.280851 0.000023 0.000040 94.280011 0.000043 0.000040 62.066981 0.000027 0.000049 93.253351 0.000080 0.000027 93.252784 0.000062 0.000029 82.842477 -9.382192 -0.000640 87.371466 0.000061 0.000045 100.177053 0.000054 0.000045 74.077541 0.000052 0.000025 92.730009 0.000057 0.000024 92.729653 0.000065 0.000011 18.821044 1.291033 -4.179720 0.000031 -0.000005 -47.534889 0.000041 -0.000041 -59.413439 -0.089264 0.592205 -10.383134 6.555977 -7.242701 1.104926 -0.093829 13.445758 -3.195916 -0.816516 -4.572958 4.866631 -2.038185 -2.766374 5.470025 -5.114320 -7.492303 -1.587429 -0.089938 11.812985 -2.315162 5.761128 -3.606454 -0.483809 0.051302 -2.424203 1.105817 
0.000000 0.000000 0.000000 -0.000000 0.000000 -89.999982 -0.000000 0.000000 -0.000000 0.000000 0.000003 -0.000000 0.138324 0.412853 -15.033205 1.073929 0.463955 2.284230 -1.495996 -4.783780 7.475277 1.381892 6.701707 -0.514709 -0.000001 6.304297 -0.000001 -0.000074 1.142637 -0.000039 -0.000059 -1.092610 -0.000021 -17.199828 14.245249 -1.535795 -56.825453 -4.278757 -6.770726 -0.284947 0.039887 -32.173589 -7.353249 -2.793075 -2.903790 -74.271532 11.660466 0.277001 -96.269413 0.021985 -0.019684 -96.269406 0.021968 -0.019680 -63.380761 0.010908 -0.017712 -95.220528 0.021585 -0.019746 -95.220487 0.021585 -0.019743 -84.596722 -10.179548 -0.019368 -89.216348 0.019508 -0.019798 -102.290894 0.024017 -0.019355 -75.641995 0.014871 -0.019193 -94.686298 0.021400 -0.019753 -94.686305 0.021404 -0.019758 -19.271478 1.321796 4.717921 -0.015057 -0.007002 49.695405 -0.017450 -0.010460 61.826312 16.619751 14.774338 2.304041 48.688013 5.731071 14.878761 0.274925 0.040399 32.244449 11.066227 -4.824545 4.193938 70.556988 9.860052 -0.292344 91.712222 0.000022 0.000042 91.712358 0.000044 0.000040 60.360021 0.000022 0.000047 90.683233 0.000073 0.000031 90.683472 0.000058 0.000029 80.564766 -8.630233 -0.000561 84.967458 0.000058 0.000045 97.448795 0.000055 0.000046 72.037527 0.000045 0.000025 90.176337 0.000055 0.000026 90.174719 0.000066 0.000014 18.403132 1.260761 -3.672742 0.000030 -0.000008 -44.734280 0.000039 -0.000036 -56.289952 -0.510028 0.534828 -16.669638 8.895997 -8.212957 2.438595 -0.191931 17.967450 -7.724846 4.816759 -5.726847 3.874785 -4.481677 -6.941438 12.209668 -4.133687 -7.481780 -4.310937 -0.183333 15.086547 -5.681875 5.860564 -4.896919 -0.510556 0.109259 -5.625725 2.218977 
0.000000 0.000000 0.000000 -0.000000 0.000000 -89.999982 -0.000000 0.000000 -0.000000 0.000000 0.000003 -0.000000 0.069130 0.424868 -20.926281 1.638103 0.974718 2.555710 -3.109711 -1.875583 11.198529 2.095310 3.571838 -1.183391 -0.000001 6.956607 -0.000002 -0.000074 1.214088 -0.000038 -0.000059 -1.161935 -0.000020 -15.800886 13.862223 -1.205542 -57.516203 -6.427291 -6.734975 -0.275608 0.066988 -37.522604 -6.410199 -2.602701 -2.641804 -74.341712 11.694113 0.272560 -96.357071 0.022020 -0.019680 -96.354032 0.021998 -0.019681 -63.436973 0.010930 -0.017724 -95.304239 0.021616 -0.019746 -95.304198 0.021614 -0.019740 -84.672762 -10.209477 -0.019037 -89.297880 0.019537 -0.019796 -102.380786 0.024045 -0.019343 -75.711383 0.014900 -0.019200 -94.772536 0.021430 -0.019752 -94.772536 0.021434 -0.019753 -19.286480 1.322232 4.738643 -0.015073 -0.007031 49.790395 -0.017468 -0.010490 61.931914 15.076323 14.479497 2.259400 45.605501 6.790585 20.201027 0.265586 0.060570 37.917430 9.169750 -4.004071 4.273122 68.456008 9.000950 -0.286370 88.992795 0.000019 0.000041 88.991730 0.000043 0.000043 58.653061 0.000020 0.000049 88.113115 0.000072 0.000034 88.114098 0.000053 0.000032 78.283974 -7.877382 -0.000338 82.563443 0.000057 0.000045 94.507005 0.000052 0.000046 69.997452 0.000043 0.000026 87.619743 0.000053 0.000024 87.619791 0.000060 0.000014 17.986041 1.231251 -3.165253 0.000028 -0.000002 -41.711863 0.000039 -0.000034 -52.920159 -0.934828 0.475389 -22.489132 11.216871 -8.066567 3.635959 -0.291887 20.769799 -12.052773 8.002172 -2.600932 2.215315 -6.654823 -10.748203 17.974865 -3.154359 -7.602369 -7.041883 -0.277985 17.325188 -9.401395 6.223585 -5.264106 -0.440767 0.171986 -8.544761 3.338536 
0.000000 0.000000 0.000000 -0.000000 0.000000 -89.999982 -0.000000 0.000000 -0.000000 0.000000 0.000003 -0.000000 0.014499 0.430435 -26.819370 2.203143 1.541183 2.717208 -4.727881 1.023404 15.083747 2.360310 0.610829 -1.697996 -0.000001 7.609610 -0.000003 -0.000074 1.285477 -0.000040 -0.000059 -1.230579 -0.000021 -14.729740 13.495988 -0.934014 -58.149608 -8.093167 -6.699279 -0.270054 0.084527 -42.871632 -5.468071 -2.406035 -2.380522 -74.409406 11.728450 0.267524 -96.441697 0.022046 -0.019678 -96.441697 0.022026 -0.019678 -63.495249 0.010945 -0.017733 -95.390982 0.021646 -0.019738 -95.390934 0.021644 -0.019738 -84.751501 -10.239495 -0.019946 -89.379412 0.019566 -0.019803 -102.473943 0.024077 -0.019337 -75.780710 0.014922 -0.019202 -94.855727 0.021458 -0.019750 -94.855727 0.021463 -0.019749 -19.301389 1.322398 4.758001 -0.015095 -0.007054 49.885332 -0.017485 -0.010526 62.037563 13.597171 14.182358 2.191397 42.817145 7.407953 25.905740 0.246969 0.098442 43.594516 7.315236 -3.186597 4.350121 66.841228 8.141651 -0.280545 86.270385 0.000015 0.000041 86.271095 0.000040 0.000043 57.341733 0.000016 0.000049 86.143691 0.000068 0.000034 86.144094 0.000055 0.000026 76.534824 -7.125010 -0.000175 80.716102 0.000056 0.000049 91.562067 0.000048 0.000046 68.433387 0.000042 0.000028 85.659247 0.000053 0.000017 85.660783 0.000063 0.000016 17.568425 1.201917 -2.659477 0.000029 -0.000002 -38.689446 0.000037 -0.000032 -49.548135 -1.358821 0.414394 -28.308482 13.582520 -7.907755 4.827165 -0.393509 22.517774 -16.377366 11.192410 0.519731 1.284787 -8.667515 -14.990068 23.505749 -3.614029 -7.712292 -9.908045 -0.376794 20.153137 -13.109182 6.936478 -4.542820 -0.463276 0.231902 -11.462410 4.463668 
0.000000 0.000000 0.000000 -0.000000 0.000000 -89.999982 -0.000000 0.000000 -0.000000 0.000000 0.000003 -0.000000 -0.048182 0.438173 -32.691348 2.697691 2.165026 2.674940 -6.359461 3.909395 19.133365 2.316826 -1.855829 -1.908143 -0.000000 8.261982 -0.000002 -0.000074 1.356924 -0.000039 -0.000059 -1.299958 -0.000020 -13.646390 13.137258 -0.688907 -58.780437 -9.759042 -6.667139 -0.255157 0.111627 -47.448190 -4.526665 -2.197849 -2.115115 -74.479593 11.762134 0.263190 -96.529356 0.022074 -0.019674 -96.529356 0.022064 -0.019678 -63.551440 0.010962 -0.017739 -95.477671 0.021673 -0.019740 -95.477630 0.021672 -0.019734 -84.827582 -10.268783 -0.019840 -89.458136 0.019591 -0.019798 -102.567107 0.024112 -0.019329 -75.847687 0.014946 -0.019213 -94.941959 0.021486 -0.019747 -94.941959 0.021493 -0.019749 -19.317563 1.323086 4.777674 -0.015117 -0.007079 49.980271 -0.017504 -0.010557 62.143151 12.127134 13.885285 2.091526 40.395019 7.670651 31.968499 0.234532 0.107270 49.291839 5.453442 -2.372802 4.423074 65.224782 7.281740 -0.274077 83.550945 0.000010 0.000039 83.550460 0.000034 0.000042 56.028335 0.000020 0.000044 84.171283 0.000068 0.000036 84.171058 0.000050 0.000033 74.780818 -6.372090 -0.000236 78.868836 0.000053 0.000044 88.617108 0.000045 0.000047 66.866869 0.000044 0.000025 83.698750 0.000050 0.000024 83.698873 0.000058 0.000015 17.152652 1.172134 -2.151509 0.000026 -0.000001 -35.667043 0.000041 -0.000029 -46.176115 -1.788821 0.354302 -33.909290 15.945264 -7.734759 6.159970 -0.499085 24.265065 -20.694703 14.418353 3.521184 0.015950 -10.647623 -19.328384 27.158528 -4.073261 -7.822768 -12.774483 -0.481661 22.979980 -16.397525 8.183069 -3.287006 -0.545914 0.293805 -14.378185 5.595308 
